<svg xmlns="http://www.w3.org/2000/svg" width="512" height="512" viewBox="0 0 512 512" version="1.1">
	<style>
    @media (prefers-color-scheme: dark) {
     .a { fill: #ffffff }
    }
  </style>
  <path class="a" d="M 230 15.115 C 212.035 17.165, 183.925 24.105, 167 30.668 C 146.888 38.468, 119.472 54.320, 103.500 67.385 C 59.766 103.158, 31.170 153.665, 21.338 212.500 C 18.785 227.780, 18.797 264.727, 21.360 280.500 C 38.294 384.692, 115.769 458.474, 224.458 473.917 C 240.808 476.240, 239.579 475.276, 246.494 491.192 C 249.077 497.137, 251.539 501.785, 251.966 501.521 C 252.393 501.257, 252.994 499.780, 253.303 498.237 C 254.089 494.305, 261.151 484.038, 266.389 479.209 C 270.915 475.037, 275.961 473.015, 281.872 473.006 C 293.540 472.986, 327.482 465.711, 344 459.688 C 391.433 442.393, 434.649 406.770, 459.573 364.420 C 477.017 334.779, 487.255 305.941, 490.953 276.026 C 492.446 263.948, 492.247 236.416, 490.569 222.892 C 485.098 178.785, 465.657 131.179, 440.033 99.140 C 430.940 87.770, 413.649 70.882, 402.662 62.637 C 367.909 36.559, 323.120 19.387, 278.576 15.061 C 265.989 13.838, 240.943 13.867, 230 15.115 M 230.500 30.067 C 210.520 32.762, 188.069 38.739, 170.578 46.018 C 116.721 68.433, 83.710 98.715, 59.950 147.500 C 43.621 181.027, 37.289 211.668, 38.267 252.430 C 38.828 275.815, 40.499 287.160, 46.402 307.650 C 64.504 370.486, 104.553 415.671, 166.805 443.493 C 193.806 455.561, 231.013 464.914, 252.283 464.982 C 259.201 465.004, 260.048 464.604, 288.587 447.866 C 300.089 441.120, 316.487 431.947, 325.027 427.481 C 346.982 416.001, 360.194 406.738, 380.132 388.848 C 384.330 385.082, 388.257 382, 388.859 382 C 389.461 382, 390.677 383.104, 391.561 384.453 C 393.103 386.807, 393.034 387.075, 389.853 391.033 C 385.648 396.266, 369.895 410.628, 359.493 418.712 C 332.678 439.553, 325.744 444.779, 319.122 449.141 C 313.248 453.009, 312.251 454, 314.232 454 C 318.563 454, 338.032 447.045, 350.959 440.879 C 397.734 418.571, 429.691 387.698, 451.755 343.500 C 467.372 312.218, 473.946 284.949, 473.982 251.301 C 474.053 184.284, 446.349 118.881, 402.258 81.980 C 370.518 55.415, 335.042 39.613, 289.931 31.944 C 275.748 29.532, 242.294 28.476, 230.500 30.067 M 298.639 58.498 C 297.973 60.234, 300.694 62.260, 306.516 64.363 C 328.526 72.313, 358.990 89.483, 378 104.654 C 406.499 127.396, 422.575 149.978, 433.884 183.152 C 440.865 203.633, 445.996 232.636, 445.999 251.644 C 446.004 280.693, 437.790 313.096, 422.803 343.147 C 415.334 358.125, 415.001 359.088, 415.014 365.647 C 415.029 373.116, 415.744 377, 417.107 377 C 418.696 377, 434.066 357.654, 439.749 348.500 C 450.881 330.568, 459.006 309.453, 463.076 287.877 C 466.175 271.447, 466.869 239.986, 464.520 222.397 C 460.287 190.696, 447.976 156.179, 432.838 133.567 C 425.183 122.131, 406 102.318, 406 105.846 C 406 106.386, 409.766 111.929, 414.370 118.164 C 418.973 124.399, 423.532 131.075, 424.500 133 C 426.086 136.152, 425.834 136.002, 421.974 131.500 C 394.856 99.874, 348.434 69.881, 309.936 59.115 C 300.949 56.602, 299.399 56.517, 298.639 58.498 M 199 60.885 C 178.816 66.755, 158.447 76.524, 138 90.142 C 112.342 107.230, 99.979 118.833, 84.549 140.308 C 80.278 146.253, 76.569 150.903, 76.308 150.641 C 75.024 149.357, 80.882 139.913, 92.340 124.799 C 99.303 115.613, 105 107.598, 105 106.989 C 105 103.285, 84.352 125.188, 76.244 137.492 C 63.489 156.850, 51.808 190.090, 47.556 219.128 C 45.497 233.193, 45.494 263.306, 47.551 278.054 C 52.123 310.830, 63.806 338.689, 84.769 366.804 C 95.256 380.869, 96.381 381.056, 96.788 368.798 L 97.076 360.119 91.404 348.809 C 59.481 285.163, 57.976 222.074, 86.961 162.500 C 100.940 133.767, 118.592 114.376, 149.500 93.800 C 163.300 84.613, 188.163 71.949, 202 67.059 C 212.531 63.338, 214.377 62.146, 213.430 59.678 C 212.566 57.428, 210.210 57.625, 199 60.885 M 268.132 65.773 C 261.332 77.418, 258.671 86.728, 258.635 99 C 258.597 112.275, 260.550 118.984, 270.572 140 C 274.638 148.525, 278.872 159.059, 279.982 163.410 C 283.395 176.787, 282.412 193.396, 277.670 202.500 L 275.586 206.500 274.805 199.820 C 274.012 193.034, 271.091 183.874, 268.659 180.548 C 267.494 178.955, 267.234 180.014, 266.668 188.647 C 265.924 200.011, 263.898 207.877, 261.054 210.451 C 259.293 212.045, 258.929 212.072, 257.565 210.708 C 256.488 209.631, 254.863 209.343, 252.021 209.724 C 247.236 210.366, 246.871 209.132, 250.020 202.960 C 252.708 197.693, 250.994 197.941, 246.300 203.499 C 240.644 210.197, 233.205 223.589, 230.842 231.329 C 228.083 240.367, 228.615 251.475, 232.310 261.948 C 233.755 266.044, 234.729 269.604, 234.475 269.859 C 234.220 270.113, 231.806 268.816, 229.110 266.976 C 220.276 260.948, 215.671 250.675, 215.671 237 C 215.671 223.062, 219.737 213.746, 234.441 194 C 257.867 162.542, 259.593 142.471, 242.198 103.849 C 236.576 91.368, 236.496 91.255, 236.203 95.409 C 236.040 97.725, 236.827 106.712, 237.953 115.379 C 240.257 133.116, 240.536 144.402, 238.864 152.200 L 237.728 157.498 236.337 151.999 C 235.006 146.734, 228.597 132, 227.639 132 C 227.386 132, 227.215 137.738, 227.260 144.750 C 227.385 164.228, 224.481 172.783, 211.710 190.561 C 188.158 223.349, 181.845 238.962, 181.815 264.500 C 181.803 275.298, 182.239 279.185, 184.392 287.445 C 187.404 299.002, 193.017 310.733, 200.236 320.556 C 205.575 327.820, 227.928 350.294, 243.753 364.307 L 253.005 372.500 240.574 384.553 L 228.143 396.607 232.571 404.008 C 235.007 408.078, 237 411.992, 237 412.704 C 237 413.417, 237.345 414, 237.768 414 C 239.142 414, 269.681 384.801, 280.649 373 C 314.018 337.096, 331.398 306.898, 336.143 276.577 C 337.630 267.077, 336.600 247.466, 334.112 237.891 C 331.104 226.319, 326.627 215.497, 320.505 205 C 310.810 188.377, 307.935 182.056, 302.350 165.083 C 297.074 149.051, 293.829 142.052, 283.294 123.991 C 276.467 112.288, 272.985 103.150, 271.186 92.220 C 269.800 83.792, 269.810 81.871, 271.300 71.273 C 272.201 64.856, 272.768 59.435, 272.559 59.226 C 272.350 59.016, 270.358 61.963, 268.132 65.773 M 302.076 200.500 C 301.899 212.613, 299.950 224.217, 297.180 229.648 C 296.051 231.860, 291.431 238.582, 286.914 244.585 C 278.389 255.913, 275.618 261.006, 273.357 269.495 C 271.957 274.749, 271.730 288.388, 272.957 293.500 L 273.676 296.500 275.714 291.958 C 276.834 289.460, 281.502 282.710, 286.086 276.958 C 303.389 255.249, 308.243 243.454, 308.087 223.500 C 308.028 215.986, 307.289 210.641, 305.115 202 L 302.221 190.500 302.076 200.500 M 284.638 220.464 C 282.514 221.222, 278.376 221.785, 275.443 221.716 C 269.468 221.576, 266 223.700, 266 227.500 C 266 232.764, 272.681 234.421, 281.715 231.399 C 288.175 229.238, 291 226.478, 291 222.326 C 291 218.606, 290.369 218.421, 284.638 220.464 M 200.443 244.500 C 199.924 247.250, 199.500 255.125, 199.500 262 C 199.500 273.096, 199.816 275.420, 202.313 282.692 C 207.575 298.017, 215.337 307.973, 236.070 325.990 L 250.324 338.378 249.703 332.429 C 248.408 320.047, 243.687 312.297, 229.795 299.753 C 212.124 283.798, 203.572 268.031, 202.089 248.679 L 201.386 239.500 200.443 244.500 M 315.030 254.520 C 314.971 266.189, 308.798 282.407, 299.340 295.739 C 296.906 299.171, 291.260 306.371, 286.793 311.739 C 275.964 324.755, 273.825 329.504, 274.207 339.684 L 274.500 347.500 284.302 335.500 C 301.911 313.943, 310.480 299.901, 315.144 284.957 C 317.055 278.837, 317.474 275.260, 317.484 265 C 317.492 256.916, 317.066 251.793, 316.279 250.500 C 315.233 248.784, 315.057 249.353, 315.030 254.520 M 120.523 384.974 C 118.874 386.797, 118.859 387.135, 120.326 389.375 C 122.809 393.164, 138.840 407.151, 151.239 416.347 C 163.265 425.266, 190.247 443, 191.791 443 C 192.786 443, 194.222 432.169, 193.403 430.842 C 193.133 430.406, 188.779 427.914, 183.726 425.305 C 168.158 417.264, 145.534 401.458, 130.050 387.805 C 127.053 385.162, 124.085 383, 123.455 383 C 122.825 383, 121.506 383.888, 120.523 384.974" stroke="none" fill="currentColor" fill-rule="evenodd"/>
</svg>